# xmcd CD database file
#
# Track frame offsets:
#	150
#	16695
#	36771
#	52836
#	70065
#	99591
#	117612
#	133028
#	149676
#	176884
#	191799
#	207038
#
# Disc length: 3049 seconds
#
# Revision: 5
# Processed by: cddbd v1.5.2PL0 Copyright (c) Steve Scherf et al.
# Submitted via: CDex 1.60beta1-cs1
#
DISCID=af0be70c
DTITLE=Paul Heaton and Jacqui Abbott - Wisdom, Laughter and Lines
DYEAR=2015
DGENRE=Pop
TTITLE0=(Man Is) The Biggest Bitch of All
TTITLE1=The Austerity of Love
TTITLE2=I Don't See Them
TTITLE3=Heatongrad
TTITLE4=Sundial in the Shade
TTITLE5=Lonesome and Sad Millionaire
TTITLE6=The Queen of Soho
TTITLE7=The Horse and Groom
TTITLE8=When Love For Woman Stops
TTITLE9=No One Wants to Stay
TTITLE10=Wives 1, 2 and 3
TTITLE11=You, the Mountain and Me
EXTD=YEAR: 2015
EXTT0=
EXTT1=
EXTT2=
EXTT3=
EXTT4=
EXTT5=
EXTT6=
EXTT7=
EXTT8=
EXTT9=
EXTT10=
EXTT11=
PLAYORDER=
